<svg width="837" height="411" viewBox="0 0 837 411" fill="none" xmlns="http://www.w3.org/2000/svg">
<path d="M36.843 276.183V245.383H70.843C78.843 245.383 85.7763 243.849 91.643 240.783C97.643 237.716 102.243 233.183 105.443 227.183C108.643 221.049 110.243 213.649 110.243 204.983C110.243 196.449 108.576 189.249 105.243 183.383C102.043 177.383 97.5096 172.849 91.643 169.783C85.7763 166.716 78.843 165.183 70.843 165.183H35.243V134.383H71.043C81.9763 134.383 92.043 136.116 101.243 139.583C110.443 142.916 118.443 147.716 125.243 153.983C132.043 160.249 137.31 167.716 141.043 176.383C144.91 185.049 146.843 194.649 146.843 205.183C146.843 215.849 144.91 225.516 141.043 234.183C137.31 242.849 132.043 250.316 125.243 256.583C118.443 262.849 110.443 267.716 101.243 271.183C92.1763 274.516 82.243 276.183 71.443 276.183H36.843ZM12.643 276.183V134.383H48.443V276.183H12.643ZM191.791 276.183L151.991 178.383H189.191L214.591 260.783H200.391L225.591 178.383H262.391L222.591 276.183H191.791ZM267.752 251.383L336.152 159.183H379.352L310.952 251.383H267.752ZM267.752 276.183V251.383L289.152 246.183H377.752V276.183H267.752ZM271.352 164.383V134.383H379.352V159.183L357.752 164.383H271.352ZM441.284 278.383C430.35 278.383 420.684 276.249 412.284 271.983C403.884 267.583 397.284 261.516 392.484 253.783C387.684 246.049 385.284 237.183 385.284 227.183C385.284 217.316 387.617 208.583 392.284 200.983C396.95 193.249 403.284 187.183 411.284 182.783C419.417 178.249 428.55 175.983 438.684 175.983C448.55 175.983 457.284 178.116 464.884 182.383C472.617 186.516 478.617 192.316 482.884 199.783C487.284 207.116 489.484 215.516 489.484 224.983C489.484 226.983 489.35 229.049 489.084 231.183C488.95 233.183 488.55 235.516 487.884 238.183L401.684 238.583V216.183L474.084 215.583L458.484 225.383C458.35 219.916 457.55 215.449 456.084 211.983C454.617 208.383 452.484 205.649 449.684 203.783C446.884 201.916 443.35 200.983 439.084 200.983C434.684 200.983 430.884 202.049 427.684 204.183C424.484 206.316 422.017 209.316 420.284 213.183C418.55 217.049 417.684 221.716 417.684 227.183C417.684 232.783 418.617 237.583 420.484 241.583C422.35 245.449 425.017 248.383 428.484 250.383C431.95 252.383 436.217 253.383 441.284 253.383C446.084 253.383 450.284 252.583 453.884 250.983C457.617 249.383 460.95 246.916 463.884 243.583L482.084 261.783C477.284 267.249 471.417 271.383 464.484 274.183C457.684 276.983 449.95 278.383 441.284 278.383ZM530.263 276.383L491.063 178.383H528.263L552.263 258.983H537.663L561.863 178.383H599.063L558.863 276.383H530.263ZM507.063 317.583L536.063 253.783L558.863 276.383L542.063 317.583H507.063ZM646.941 278.183C637.875 278.183 629.808 275.983 622.741 271.583C615.675 267.183 610.141 261.183 606.141 253.583C602.141 245.849 600.141 237.116 600.141 227.383C600.141 217.516 602.141 208.716 606.141 200.983C610.141 193.249 615.675 187.249 622.741 182.983C629.808 178.583 637.875 176.383 646.941 176.383C653.075 176.383 658.675 177.516 663.741 179.783C668.808 181.916 672.941 184.983 676.141 188.983C679.475 192.983 681.475 197.516 682.141 202.583V251.783C681.475 256.983 679.475 261.583 676.141 265.583C672.941 269.449 668.808 272.516 663.741 274.783C658.675 277.049 653.075 278.183 646.941 278.183ZM654.341 247.183C660.075 247.183 664.675 245.316 668.141 241.583C671.741 237.849 673.541 233.049 673.541 227.183C673.541 223.316 672.741 219.916 671.141 216.983C669.541 214.049 667.275 211.716 664.341 209.983C661.541 208.249 658.275 207.383 654.541 207.383C650.808 207.383 647.475 208.249 644.541 209.983C641.741 211.716 639.475 214.116 637.741 217.183C636.141 220.116 635.341 223.449 635.341 227.183C635.341 231.049 636.141 234.516 637.741 237.583C639.341 240.516 641.608 242.849 644.541 244.583C647.475 246.316 650.741 247.183 654.341 247.183ZM672.141 276.183V249.983L677.141 225.983L672.141 202.383V178.383H706.341V276.183H672.141ZM768.649 278.183C759.183 278.183 750.849 275.983 743.649 271.583C736.449 267.183 730.783 261.183 726.649 253.583C722.649 245.849 720.649 237.116 720.649 227.383C720.649 217.516 722.649 208.716 726.649 200.983C730.783 193.249 736.383 187.249 743.449 182.983C750.649 178.583 759.049 176.383 768.649 176.383C774.783 176.383 780.516 177.516 785.849 179.783C791.183 181.916 795.649 184.983 799.249 188.983C802.849 192.983 804.983 197.516 805.649 202.583V250.383C804.983 255.449 802.849 260.116 799.249 264.383C795.649 268.649 791.183 272.049 785.849 274.583C780.516 276.983 774.783 278.183 768.649 278.183ZM774.849 247.183C778.716 247.183 782.049 246.383 784.849 244.783C787.649 243.049 789.849 240.716 791.449 237.783C793.183 234.716 794.049 231.183 794.049 227.183C794.049 223.316 793.249 219.916 791.649 216.983C790.049 214.049 787.783 211.716 784.849 209.983C782.049 208.249 778.783 207.383 775.049 207.383C771.316 207.383 767.983 208.249 765.049 209.983C762.249 211.716 759.983 214.116 758.249 217.183C756.649 220.116 755.849 223.449 755.849 227.183C755.849 231.049 756.649 234.516 758.249 237.583C759.849 240.516 762.116 242.849 765.049 244.583C767.983 246.316 771.249 247.183 774.849 247.183ZM826.849 276.183H792.649V249.983L797.649 225.983L792.049 202.383V130.383H826.849V276.183Z" fill="black"/>
<path d="M379.149 134.582L513.784 2.32423e-05L379.216 159.366L379.149 134.582Z" fill="black"/>
<path d="M268.067 275.967L133.431 410.548L267.999 251.183L268.067 275.967Z" fill="black"/>
</svg>
